<svg version="1.0" xmlns="http://www.w3.org/2000/svg" width="1024.000000ptpx" height="1024.000000ptpx" viewBox="0 0 1024.000000 1024.000000" preserveAspectRatio="xMidYMid meet" transform="rotate(0) scale(1, 1)">

<g transform="translate(0,1024) scale(0.1,-0.1)" fill="#D4AF37" stroke="none">
<path d="M0 5120 l0 -5120 5120 0 5120 0 0 5120 0 5120 -5120 0 -5120 0 0&#10;-5120z m6970 2080 c117 -15 307 -62 416 -103 153 -59 399 -188 392 -207 -2 -4&#10;-31 -38 -66 -75 l-63 -69 -37 23 c-85 51 -323 160 -402 184 -302 91 -599 94&#10;-887 11 -258 -74 -469 -201 -660 -395 -185 -190 -300 -370 -371 -587 -168&#10;-506 -101 -1059 179 -1481 56 -85 60 -74 -54 -136 -80 -43 -66 -52 -150 95&#10;-321 562 -341 1235 -53 1804 253 501 725 842 1286 931 104 16 355 19 470 5z&#10;m1701 -263 c34 -23 34 -24 34 -98 0 -160 -81 -286 -363 -571 l-205 -208 12&#10;-37 c12 -38 55 -193 92 -333 11 -41 46 -158 79 -260 101 -320 100 -317 89&#10;-348 -5 -15 -29 -45 -52 -68 -23 -22 -54 -62 -70 -88 -23 -40 -31 -47 -54 -44&#10;-23 3 -35 21 -98 143 -39 77 -134 253 -212 390 -77 138 -150 269 -162 293&#10;l-22 43 -32 -23 c-50 -35 -182 -151 -289 -253 l-98 -93 0 -59 c0 -32 5 -110&#10;10 -173 17 -181 18 -170 -30 -223 -65 -71 -75 -67 -161 66 -132 204 -141 217&#10;-149 217 -15 0 -227 -199 -390 -366 -327 -334 -581 -620 -742 -836 -122 -163&#10;-108 -154 -163 -103 -45 42 -265 287 -265 295 0 6 46 32 103 59 328 157 654&#10;395 1061 776 114 106 286 289 286 305 0 5 -76 54 -247 161 -40 24 -63 45 -63&#10;57 0 9 29 46 64 81 l64 64 195 -33 195 -33 33 39 c18 22 99 106 181 188 81 82&#10;145 153 142 158 -3 5 -72 53 -152 107 -81 54 -212 145 -292 202 -80 57 -179&#10;127 -219 154 -103 70 -166 128 -156 144 9 15 108 61 130 61 8 0 21 11 30 23&#10;37 57 103 60 220 12 196 -81 785 -295 813 -295 8 0 95 78 191 173 178 174 283&#10;257 388 304 129 58 219 67 274 30z m-2142 -377 c17 -28 32 -55 34 -61 1 -6&#10;-38 -21 -88 -34 -49 -12 -117 -35 -150 -50 -153 -71 -328 -216 -430 -359 -64&#10;-90 -141 -257 -172 -373 -24 -88 -26 -116 -27 -278 -1 -167 1 -187 27 -279 33&#10;-119 100 -264 161 -350 l44 -62 -59 -33 c-32 -18 -63 -30 -67 -27 -15 9 -98&#10;139 -131 204 -150 299 -160 715 -25 1035 138 327 397 577 709 683 55 18 110&#10;34 122 34 15 0 30 -15 52 -50z m346 -465 c67 -14 223 -84 244 -109 8 -9 -3&#10;-26 -38 -60 l-48 -48 -49 25 c-112 57 -265 74 -380 43 -172 -46 -325 -210&#10;-369 -397 -39 -169 -4 -340 106 -518 13 -19 10 -25 -34 -68 l-48 -48 -30 35&#10;c-41 48 -93 159 -121 255 -33 115 -33 299 0 405 111 353 431 555 767 485z&#10;m-2497 -71 c225 -46 342 -180 367 -421 l7 -63 -135 0 -135 0 -7 43 c-19 129&#10;-78 189 -198 203 -128 15 -235 -59 -277 -192 -18 -54 -23 -102 -27 -226 -11&#10;-326 39 -495 162 -549 152 -66 304 -5 335 134 l13 57 145 0 144 0 -7 -45 c-28&#10;-191 -147 -335 -324 -392 -65 -20 -256 -29 -333 -14 -232 45 -370 223 -408&#10;525 -21 166 -6 448 31 571 40 139 141 267 252 324 111 56 259 73 395 45z&#10;m-2202 -15 c170 -31 301 -163 334 -338 35 -186 -11 -373 -119 -481 -97 -97&#10;-178 -120 -418 -120 l-173 0 0 -245 0 -245 -140 0 -140 0 0 720 0 720 298 0&#10;c173 0 323 -5 358 -11z m824 -584 l0 -595 290 0 290 0 0 -125 0 -125 -430 0&#10;-430 0 0 720 0 720 140 0 140 0 0 -595z m5598 483 c48 -160 64 -258 69 -448 6&#10;-188 -8 -324 -48 -485 -155 -614 -584 -1111 -1140 -1318 -487 -182 -1018 -150&#10;-1454 88 -132 72 -127 62 -65 136 29 35 56 65 61 67 4 2 35 -11 70 -28 104&#10;-53 282 -119 391 -145 261 -62 477 -60 742 6 298 74 555 219 771 433 164 162&#10;318 406 395 623 18 50 40 100 50 111 38 40 79 160 63 185 -4 7 -8 118 -8 247&#10;-1 241 -12 336 -51 453 l-16 49 63 64 c35 35 66 64 70 64 3 0 20 -46 37 -102z&#10;m-669 -798 l39 -75 -28 -75 c-67 -185 -162 -334 -299 -471 -145 -145 -271&#10;-229 -438 -294 -307 -118 -601 -110 -866 22 -49 24 -66 38 -60 46 5 7 26 33&#10;46 58 l37 47 64 -34 c104 -55 200 -76 351 -76 179 0 312 31 470 110 280 139&#10;507 418 591 722 37 135 33 127 45 110 5 -8 27 -49 48 -90z m-831 -306 c18 -23&#10;32 -44 32 -47 0 -11 -98 -65 -155 -84 -114 -40 -297 -53 -343 -24 -7 4 8 29&#10;44 69 l56 62 57 0 c69 0 155 21 219 54 26 13 50 21 53 18 3 -4 20 -26 37 -48z"/>
<path d="M1800 5545 l0 -225 138 0 c189 1 234 19 275 110 28 62 28 168 0 231&#10;-38 86 -97 109 -285 109 l-128 0 0 -225z"/>
</g>
</svg>
